<svg width="30" height="30" viewBox="0 0 30 30" fill="none" xmlns="http://www.w3.org/2000/svg">
<g id="devicon:facebook">
<path id="Vector" d="M26.867 1.11243H2.61632C1.78567 1.11243 1.1123 1.7858 1.1123 2.61644V26.8672C1.1123 27.6978 1.78567 28.3712 2.61632 28.3712H26.867C27.6977 28.3712 28.3711 27.6978 28.3711 26.8672V2.61644C28.3711 1.7858 27.6977 1.11243 26.867 1.11243Z" fill="#3D5A98"/>
<path id="Vector_2" d="M19.9189 28.3689V17.8131H23.4612L23.991 13.6996H19.9189V11.0739C19.9189 9.88312 20.2505 9.07008 21.9572 9.07008H24.1361V5.38491C23.081 5.27515 22.0207 5.22286 20.9599 5.22829C17.8229 5.22829 15.6625 7.13997 15.6625 10.6662V13.6996H12.1201V17.8131H15.6625V28.3689H19.9189Z" fill="white"/>
</g>
</svg>
