<svg width="31" height="30" viewBox="0 0 31 30" fill="none" xmlns="http://www.w3.org/2000/svg">
<g id="skill-icons:instagram" clip-path="url(#clip0_2788_145)">
<g id="Group">
<path id="Vector" d="M23.142 0H7.48001C3.66389 0 0.570312 3.09358 0.570312 6.9097V22.5717C0.570312 26.3878 3.66389 29.4814 7.48001 29.4814H23.142C26.9581 29.4814 30.0517 26.3878 30.0517 22.5717V6.9097C30.0517 3.09358 26.9581 0 23.142 0Z" fill="url(#paint0_radial_2788_145)"/>
<path id="Vector_2" d="M23.142 0H7.48001C3.66389 0 0.570312 3.09358 0.570312 6.9097V22.5717C0.570312 26.3878 3.66389 29.4814 7.48001 29.4814H23.142C26.9581 29.4814 30.0517 26.3878 30.0517 22.5717V6.9097C30.0517 3.09358 26.9581 0 23.142 0Z" fill="url(#paint1_radial_2788_145)"/>
<path id="Vector_3" d="M15.3121 3.22461C12.1846 3.22461 11.792 3.23831 10.5637 3.29417C9.33765 3.35037 8.50077 3.54441 7.76857 3.82921C7.01104 4.12333 6.36855 4.51684 5.72848 5.15714C5.08784 5.79732 4.69433 6.43981 4.39929 7.19699C4.11369 7.92942 3.91941 8.76665 3.86425 9.99208C3.80932 11.2205 3.79492 11.6132 3.79492 14.7409C3.79492 17.8686 3.80874 18.2599 3.86448 19.4882C3.92091 20.7142 4.11496 21.5511 4.39952 22.2833C4.69387 23.0408 5.08738 23.6833 5.72768 24.3234C6.36763 24.964 7.01012 25.3584 7.76708 25.6526C8.49985 25.9374 9.33684 26.1314 10.5626 26.1876C11.7911 26.2435 12.1833 26.2572 15.3107 26.2572C18.4386 26.2572 18.83 26.2435 20.0583 26.1876C21.2843 26.1314 22.1221 25.9374 22.8549 25.6526C23.612 25.3584 24.2536 24.964 24.8934 24.3234C25.5341 23.6833 25.9275 23.0408 26.2226 22.2836C26.5057 21.5511 26.7001 20.714 26.7577 19.4884C26.8128 18.2601 26.8272 17.8686 26.8272 14.7409C26.8272 11.6132 26.8128 11.2207 26.7577 9.99231C26.7001 8.7663 26.5057 7.92954 26.2226 7.19734C25.9275 6.43981 25.5341 5.79732 24.8934 5.15714C24.2529 4.51661 23.6123 4.1231 22.8542 3.82932C22.12 3.54441 21.2827 3.35025 20.0567 3.29417C18.8282 3.23831 18.4371 3.22461 15.3085 3.22461H15.3121ZM14.279 5.29994C14.5857 5.29948 14.9278 5.29994 15.3121 5.29994C18.387 5.29994 18.7514 5.31099 19.9657 5.36615C21.0885 5.41752 21.6979 5.60511 22.1039 5.76277C22.6413 5.97144 23.0245 6.221 23.4273 6.62418C23.8304 7.02725 24.0798 7.41108 24.2891 7.94854C24.4467 8.35391 24.6346 8.96334 24.6857 10.0862C24.7409 11.3002 24.7528 11.6648 24.7528 14.7382C24.7528 17.8117 24.7409 18.1764 24.6857 19.3903C24.6343 20.5131 24.4467 21.1226 24.2891 21.528C24.0804 22.0655 23.8304 22.4482 23.4273 22.851C23.0243 23.2541 22.6416 23.5035 22.1039 23.7123C21.6984 23.8707 21.0885 24.0578 19.9657 24.1092C18.7516 24.1643 18.387 24.1763 15.3121 24.1763C12.2371 24.1763 11.8726 24.1643 10.6587 24.1092C9.53584 24.0573 8.92641 23.8697 8.52012 23.7121C7.98277 23.5033 7.59882 23.2539 7.19576 22.8508C6.79269 22.4477 6.54325 22.0648 6.334 21.5271C6.17635 21.1216 5.98852 20.5122 5.93739 19.3894C5.88223 18.1753 5.87117 17.8107 5.87117 14.7354C5.87117 11.66 5.88223 11.2973 5.93739 10.0833C5.98875 8.96046 6.17635 8.35103 6.334 7.94508C6.54279 7.40762 6.79269 7.02379 7.19587 6.62072C7.59905 6.21766 7.98277 5.9681 8.52023 5.75897C8.92618 5.60062 9.53584 5.41349 10.6587 5.36189C11.721 5.31387 12.1327 5.29948 14.279 5.29706V5.29994ZM21.4594 7.21208C20.6965 7.21208 20.0775 7.8305 20.0775 8.59356C20.0775 9.3565 20.6965 9.9755 21.4594 9.9755C22.2224 9.9755 22.8414 9.3565 22.8414 8.59356C22.8414 7.83061 22.2224 7.21162 21.4594 7.21162V7.21208ZM15.3121 8.82676C12.0461 8.82676 9.39811 11.4748 9.39811 14.7409C9.39811 18.007 12.0461 20.6537 15.3121 20.6537C18.5782 20.6537 21.2253 18.007 21.2253 14.7409C21.2253 11.4749 18.578 8.82676 15.3119 8.82676H15.3121ZM15.3121 10.9021C17.4321 10.9021 19.1509 12.6206 19.1509 14.7409C19.1509 16.8609 17.4321 18.5797 15.3121 18.5797C13.1921 18.5797 11.4734 16.8609 11.4734 14.7409C11.4734 12.6206 13.192 10.9021 15.3121 10.9021Z" fill="white"/>
</g>
</g>
<defs>
<radialGradient id="paint0_radial_2788_145" cx="0" cy="0" r="1" gradientUnits="userSpaceOnUse" gradientTransform="translate(8.4013 31.752) rotate(-90) scale(29.2182 27.1753)">
<stop stop-color="#FFDD55"/>
<stop offset="0.1" stop-color="#FFDD55"/>
<stop offset="0.5" stop-color="#FF543E"/>
<stop offset="1" stop-color="#C837AB"/>
</radialGradient>
<radialGradient id="paint1_radial_2788_145" cx="0" cy="0" r="1" gradientUnits="userSpaceOnUse" gradientTransform="translate(-4.36793 2.12369) rotate(78.681) scale(13.0607 53.8367)">
<stop stop-color="#3771C8"/>
<stop offset="0.128" stop-color="#3771C8"/>
<stop offset="1" stop-color="#6600FF" stop-opacity="0"/>
</radialGradient>
<clipPath id="clip0_2788_145">
<rect width="29.4814" height="29.4814" fill="white" transform="translate(0.570312)"/>
</clipPath>
</defs>
</svg>
